<svg xmlns="http://www.w3.org/2000/svg"
 xmlns:xlink="http://www.w3.org/1999/xlink"
 width="18px" height="17px"  viewBox="0 0 18 17">
<path fill-rule="evenodd"  fill="#ffffff"
 d="M3.7312317,3.0297852 C5.7147217,1.0461426 8.9305725,1.0461426 10.914093,3.0297852 C12.897583,5.0133057 12.897583,8.229126 10.914093,10.212769 C8.9305725,12.196289 5.7147217,12.196289 3.7312317,10.212769 C1.7477112,8.229126 1.7477112,5.0133057 3.7312317,3.0297852 ZM5.0138855,4.3125 C6.2890015,3.0373535 8.356354,3.0373535 9.631439,4.3125 C10.906555,5.5875244 10.906555,7.6551514 9.631439,8.930176 C8.356354,10.205078 6.2890015,10.205078 5.0138855,8.930176 C3.7388,7.6551514 3.7388,5.5875244 5.0138855,4.3125 ZM9.73938,8.886475 C10.287872,8.338257 11.259277,8.255859 11.807739,8.804321 C11.807739,8.804321 15.474365,12.471069 15.474365,12.471069 C16.022858,13.019287 15.940765,13.990723 15.392303,14.539185 C14.843811,15.087769 13.954529,15.087769 13.406036,14.539185 C13.406036,14.539185 9.73938,10.872559 9.73938,10.872559 C9.1909485,10.324463 9.1909485,9.434937 9.73938,8.886475 Z"/>
</svg>